<svg version="1.1" id="Layer_1" xmlns="http://www.w3.org/2000/svg" xmlns:xlink="http://www.w3.org/1999/xlink" x="0px" y="0px"
	 width="100%" viewBox="0 0 754 1099" enable-background="new 0 0 754 1099" xml:space="preserve">
<path fill="none" opacity="1.000000" stroke="#000000" stroke-linecap="round" stroke-linejoin="round" stroke-width="4.000000"
	d="
M451.000000,501.000000 
	C433.500000,500.000000 416.011169,498.581604 398.496979,498.113556 
	C379.677063,497.610626 360.823547,497.679596 342.007751,498.254028 
	C337.951660,498.377899 333.630005,499.044250 329.487701,499.303864 
	C324.903564,499.591125 324.214355,502.030945 324.002960,505.500183 
	C322.950256,522.777588 321.058441,539.981628 317.901550,556.981689 
	C314.540680,575.080383 308.145721,592.136230 299.658722,608.581909 
	C291.333069,624.715027 279.599792,637.455627 265.563660,648.580322 
	C258.468781,654.203552 252.412766,660.755188 250.816376,670.469849 
	C250.303970,673.588013 250.405396,674.361084 253.444946,675.631714 
	C266.699097,681.172363 280.531342,684.502136 294.493011,687.532288 
	C308.359711,690.541870 322.375214,692.192139 336.477020,693.713074 
	C349.976562,695.169006 363.506012,695.530579 376.980164,696.724060 
	C384.496429,697.389832 392.067993,697.103882 399.525604,697.452637 
	C408.167114,697.856689 417.149445,696.774902 425.997498,696.434875 
	C436.008331,696.050232 445.995300,695.082275 456.001373,694.524902 
	C465.062958,694.020081 474.025757,692.818970 483.024353,691.695068 
	C492.235718,690.544556 501.334778,688.839355 510.493347,687.455994 
	C515.143738,686.753540 519.640076,685.410278 524.041382,683.600586 
	C526.690674,682.511230 527.068237,680.908264 527.027588,678.499512 
	C526.828003,666.671387 522.732361,656.707520 513.512146,648.985474 
	C498.023651,636.013672 485.931152,620.288086 476.524261,602.487183 
	C468.559875,587.415894 461.958954,571.686951 458.688965,554.963074 
	C456.085175,541.646301 455.407440,527.964600 453.429565,514.510376 
	C451.598480,502.054688 451.896759,489.430237 450.220001,477.037872 
	C449.336487,470.508270 450.000244,464.011169 448.766052,457.449951 
	C446.934601,447.713501 439.647369,444.319550 432.446655,440.603363 
	C428.219818,438.421997 423.763336,436.585449 419.025421,435.398529 
	C413.103119,433.914856 411.357574,430.644501 411.982178,424.498199 
	C412.454041,419.855164 411.217621,415.552338 409.000000,411.500000 
"/>
<path fill="none" opacity="1.000000" stroke="#000000" stroke-linecap="round" stroke-linejoin="round" stroke-width="2.000000"
	d="
M251.500000,671.000000 
	C264.692719,675.915466 278.050110,680.007324 291.946167,682.770630 
	C302.111572,684.792053 312.386322,686.196350 322.539642,688.309509 
	C330.340515,689.933044 338.490265,690.003357 346.502167,690.462402 
	C360.494415,691.264038 374.496552,691.933350 388.502869,692.417114 
	C391.360870,692.515808 390.311340,694.181335 390.500000,695.500000 
"/>
<path fill="none" opacity="1.000000" stroke="#000000" stroke-linecap="round" stroke-linejoin="round" stroke-width="2.000000"
	d="
M513.500000,680.500000 
	C507.500000,681.166687 501.419830,681.428223 495.518982,682.596008 
	C486.902893,684.301147 478.201019,684.983032 469.496613,685.434570 
	C446.506622,686.627563 423.507568,687.818604 400.496796,688.365479 
	C389.015167,688.638367 377.492767,687.625427 366.002106,686.963379 
	C355.333038,686.348694 344.653839,686.044617 333.987701,685.146057 
	C324.213776,684.322632 314.708008,682.048828 305.001770,680.983826 
	C287.677002,679.082825 271.088348,674.027893 254.510605,668.965271 
	C253.761124,668.736389 253.166672,668.000000 252.500000,667.500000 
"/>
<path fill="none" opacity="1.000000" stroke="#000000" stroke-linecap="round" stroke-linejoin="round" stroke-width="3.000000"
	d="
M451.500000,505.500000 
	C443.751099,507.057800 436.196411,504.441895 428.500519,504.401855 
	C421.498108,504.365417 414.506805,503.349304 407.498535,503.032288 
	C394.003540,502.421753 380.482422,501.339142 367.005249,501.697357 
	C355.013153,502.016083 342.942963,501.709747 330.991180,503.439026 
	C329.052948,503.719452 326.938812,503.900940 325.000000,503.000000 
"/>
<path fill="none" opacity="1.000000" stroke="#000000" stroke-linecap="round" stroke-linejoin="round" stroke-width="3.000000"
	d="
M450.500000,497.500000 
	C447.899139,498.846252 445.473145,497.238312 443.007721,496.936798 
	C424.235229,494.640900 405.320282,495.134583 386.509766,493.856445 
	C374.492371,493.039917 362.505005,493.065979 350.499908,493.033508 
	C342.291779,493.011292 334.133148,493.922577 326.000000,495.000000 
"/>
<path fill="none" opacity="1.000000" stroke="#000000" stroke-linecap="round" stroke-linejoin="round" stroke-width="2.000000"
	d="
M450.500000,494.000000 
	C433.237762,491.776947 415.942078,490.345612 398.499756,490.380402 
	C389.667786,490.398041 380.843506,488.921570 371.997742,488.554504 
	C356.790894,487.923523 341.649994,489.453918 326.500000,490.500000 
"/>
<path fill="none" opacity="1.000000" stroke="#000000" stroke-linecap="round" stroke-linejoin="round" stroke-width="2.000000"
	d="
M496.500000,686.500000 
	C486.666656,687.500000 476.844025,688.628235 466.995636,689.447510 
	C461.840698,689.876282 456.617676,690.133362 451.494049,690.260986 
	C439.781555,690.552734 428.160736,692.312866 416.500275,692.297668 
	C408.832214,692.287720 401.171570,692.937195 393.496948,692.562256 
	C391.240967,692.451965 389.558319,692.376404 390.000000,689.500000 
"/>
<path fill="none" opacity="1.000000" stroke="#000000" stroke-linecap="round" stroke-linejoin="round" stroke-width="2.000000"
	d="
M503.500000,644.000000 
	C492.821350,647.913940 481.810547,650.487305 470.495605,651.448242 
	C458.014862,652.508240 445.506165,653.277954 432.998444,653.972107 
	C416.846863,654.868469 400.688202,655.680481 384.499817,655.517212 
	C382.662476,655.498657 380.771820,655.156616 379.000000,656.000000 
"/>
<path fill="none" opacity="1.000000" stroke="#000000" stroke-linecap="round" stroke-linejoin="round" stroke-width="2.000000"
	d="
M434.500000,508.500000 
	C416.533844,506.935883 398.539246,505.922699 380.500092,506.019104 
	C367.832916,506.086823 355.150360,506.009033 342.507263,506.644531 
	C336.677460,506.937531 330.856873,507.578552 325.000000,507.500000 
"/>
<path fill="none" opacity="1.000000" stroke="#000000" stroke-linecap="round" stroke-linejoin="round" stroke-width="2.000000"
	d="
M501.500000,642.000000 
	C485.048706,647.072388 467.982452,648.104797 450.995880,649.447754 
	C427.541168,651.302002 404.052032,652.416687 380.498688,652.095825 
	C373.466248,652.000061 366.572113,650.623718 359.495422,650.866333 
	C352.627960,651.101746 345.801178,649.672852 338.962738,648.787903 
	C328.428467,647.424744 318.003937,645.472473 307.500000,644.000000 
"/>
<path fill="none" opacity="1.000000" stroke="#000000" stroke-linecap="round" stroke-linejoin="round" stroke-width="3.000000"
	d="
M368.500000,538.500000 
	C369.969727,547.444824 367.513092,556.191162 366.740753,564.977234 
	C366.200745,571.120056 365.853546,577.382751 364.622894,583.524597 
	C363.909943,587.082764 364.574402,590.847229 363.565826,594.518066 
	C361.910248,600.543701 365.301941,605.939514 366.695312,611.450623 
	C369.541779,622.708923 373.205627,633.771484 373.394226,645.501709 
	C373.433472,647.941956 375.823975,649.169800 375.500000,651.500000 
"/>
<path fill="none" opacity="1.000000" stroke="#000000" stroke-linecap="round" stroke-linejoin="round" stroke-width="2.000000"
	d="
M333.000000,453.000000 
	C336.666656,452.833344 340.401978,453.051788 343.984589,452.413452 
	C349.967499,451.347321 356.060730,451.064911 361.995789,451.193970 
	C373.999573,451.455078 386.025238,450.906219 397.993622,451.608673 
	C413.020111,452.490631 427.998199,454.187714 443.003143,455.463104 
	C444.312866,455.574432 445.666656,455.166687 447.000000,455.000000 
"/>
<path fill="none" opacity="1.000000" stroke="#000000" stroke-linecap="round" stroke-linejoin="round" stroke-width="16.000000"
	d="
M381.000000,399.000000 
	C381.672852,403.245178 381.268951,407.613647 383.912903,411.558380 
	C386.632996,415.616669 384.101654,419.940491 383.120117,423.968353 
	C382.413025,426.869873 380.705597,429.279663 377.032257,430.138062 
	C372.499725,431.197235 369.647369,429.580170 368.371979,425.035919 
	C367.514343,421.980164 367.559753,419.015808 367.537262,415.999725 
	C367.511932,412.599304 365.141632,410.481903 363.458649,408.028351 
	C361.318573,404.908447 358.567596,407.001892 355.992859,407.459900 
	C354.700409,407.689789 353.306396,407.673401 352.004486,407.471069 
	C344.956238,406.375916 339.960358,409.047852 337.019501,415.508881 
	C336.299286,417.091125 335.248413,417.800903 333.507080,418.049561 
	C330.421814,418.490051 327.343964,419.104889 324.500000,420.500000 
"/>
<path fill="none" opacity="1.000000" stroke="#000000" stroke-linecap="round" stroke-linejoin="round" stroke-width="2.000000"
	d="
M281.500000,637.000000 
	C286.733002,639.479004 292.426361,640.318115 298.009674,641.452332 
	C304.963959,642.865051 310.344940,647.824951 317.462280,649.195801 
	C325.951843,650.831055 334.466705,652.433655 343.016602,653.344116 
	C353.781097,654.490540 364.666656,654.500000 375.500000,655.000000 
"/>
<path fill="none" opacity="1.000000" stroke="#000000" stroke-linecap="round" stroke-linejoin="round" stroke-width="2.000000"
	d="
M396.000000,468.500000 
	C388.166656,469.017517 380.369232,467.982849 372.492279,468.319275 
	C357.618927,468.954559 342.725861,468.905945 328.000000,471.500000 
"/>
<path fill="none" opacity="1.000000" stroke="#000000" stroke-linecap="round" stroke-linejoin="round" stroke-width="8.000000"
	d="
M428.000000,343.000000 
	C425.386322,358.811188 417.209412,372.622803 411.849121,387.445435 
	C409.477966,394.002411 406.214203,399.979950 409.937775,407.032867 
	C411.031342,409.104218 409.800903,410.481079 407.508759,411.036163 
	C405.467041,411.530579 403.471588,412.259521 401.506165,413.015961 
	C397.867920,414.416168 395.522430,417.966583 396.597107,421.470215 
	C397.773590,425.305725 399.304626,428.854523 403.381989,431.204742 
	C406.321014,432.898804 408.166656,432.131500 410.500000,431.000000 
"/>
<path fill="none" opacity="1.000000" stroke="#000000" stroke-linecap="round" stroke-linejoin="round" stroke-width="3.000000"
	d="
M402.000000,395.500000 
	C405.635529,387.344849 408.839050,379.025513 411.657867,370.611481 
	C399.841492,369.552582 388.001434,371.146729 376.500000,368.000000 
"/>
<path fill="none" opacity="1.000000" stroke="#000000" stroke-linecap="round" stroke-linejoin="round" stroke-width="2.000000"
	d="
M362.000000,346.500000 
	C361.099945,349.166656 361.318115,351.795624 361.973053,354.506500 
	C364.868652,366.491455 367.681763,378.496490 370.470978,390.506744 
	C370.691345,391.455566 370.500000,392.500000 370.500000,393.500000 
"/>
<path fill="none" opacity="1.000000" stroke="#000000" stroke-linecap="round" stroke-linejoin="round" stroke-width="6.000000"
	d="
M514.000000,423.000000 
	C513.898193,430.374359 514.526672,437.695129 515.480591,445.002533 
	C516.232605,450.762787 514.830200,451.916199 508.996063,451.565308 
	C504.829834,451.314789 500.781250,450.252014 496.382935,452.241180 
	C493.561096,453.517395 490.175781,450.172668 486.493134,450.375122 
	C480.104004,450.726410 473.717834,449.528290 467.449677,452.389771 
	C462.072510,454.844574 457.441742,451.408600 457.527618,445.500397 
	C457.716461,432.511139 452.695496,421.384583 445.477661,411.015533 
	C444.922119,410.217438 444.174805,409.505341 443.000183,409.487732 
	C434.763092,409.364380 426.817657,406.505890 418.496857,406.939819 
	C415.938751,407.073212 413.435547,407.183350 411.000000,408.000000 
"/>
<path fill="none" opacity="1.000000" stroke="#000000" stroke-linecap="round" stroke-linejoin="round" stroke-width="3.000000"
	d="
M690.999939,1068.500000 
	C692.424500,1064.027832 693.849060,1059.555786 695.332581,1054.898682 
	C691.921692,1053.154053 688.672668,1054.552856 685.202881,1053.767578 
	C685.790588,1061.510742 689.851135,1067.578857 690.500000,1074.500000 
"/>
<path fill="none" opacity="1.000000" stroke="#000000" stroke-linecap="round" stroke-linejoin="round" stroke-width="3.000000"
	d="
M335.500000,370.500000 
	C331.489716,372.115265 327.517639,373.288391 322.996429,373.212799 
	C320.152374,373.165253 316.953094,374.497009 314.521362,376.525604 
	C312.386597,378.306366 309.834686,378.410645 307.519836,377.908569 
	C302.335815,376.784180 297.710236,378.440918 293.000000,380.000000 
"/>
<path fill="none" opacity="1.000000" stroke="#000000" stroke-linecap="round" stroke-linejoin="round" stroke-width="4.000000"
	d="
M365.000000,344.500000 
	C371.478607,340.429413 378.261993,337.803894 385.993286,340.519135 
	C391.139191,342.326447 396.587036,342.331451 401.400909,340.706482 
	C404.494629,339.662140 407.335999,339.579163 409.943207,340.228119 
	C411.942566,340.725800 413.846069,341.530090 416.000092,341.517670 
	C420.280365,341.493011 419.271973,345.393036 419.783447,347.551331 
	C420.198700,349.303589 418.877502,351.541687 418.088867,353.535156 
	C415.995117,358.827942 414.612335,364.396301 412.000000,369.500000 
"/>
<path fill="none" opacity="1.000000" stroke="#000000" stroke-linecap="round" stroke-linejoin="round" stroke-width="6.000000"
	d="
M502.500000,350.000000 
	C507.763245,354.473663 507.138794,360.623749 506.945038,366.498199 
	C506.663696,375.027191 507.024658,383.512604 507.742401,392.000641 
	C508.362244,399.330902 509.059418,406.659393 509.432983,414.003418 
	C509.592560,417.140167 510.455414,419.643036 513.000000,421.500000 
"/>
<path fill="none" opacity="1.000000" stroke="#000000" stroke-linecap="round" stroke-linejoin="round" stroke-width="3.000000"
	d="
M64.500000,41.500000 
	C65.879242,45.389698 62.727547,48.377903 62.370766,51.987225 
	C62.070858,55.021202 60.643147,57.943695 59.658276,61.096222 
	C63.078194,62.847675 66.327408,61.445900 70.392860,62.368008 
	C68.057655,56.316597 67.709908,50.815403 65.000000,46.000000 
"/>
<path fill="none" opacity="1.000000" stroke="#000000" stroke-linecap="round" stroke-linejoin="round" stroke-width="3.000000"
	d="
M342.500000,363.500000 
	C330.519928,364.386292 318.483948,365.220123 307.066956,369.192413 
	C304.542206,370.070862 301.837372,370.312317 300.073639,369.763397 
	C294.170624,367.926178 289.667145,370.308929 285.571594,373.589355 
	C281.489685,376.858887 277.134918,378.547607 272.000000,378.500000 
"/>
<path fill="none" opacity="1.000000" stroke="#000000" stroke-linecap="round" stroke-linejoin="round" stroke-width="3.000000"
	d="
M366.000000,431.000000 
	C361.834381,435.085938 355.991455,435.194122 350.936462,436.799957 
	C336.840912,441.277710 330.621338,451.801941 328.170715,465.031616 
	C326.779449,472.542389 325.960480,480.258514 325.933563,487.999756 
	C325.919678,491.991699 324.269287,495.941772 325.500000,500.000000 
"/>
<path fill="none" opacity="1.000000" stroke="#000000" stroke-linecap="round" stroke-linejoin="round" stroke-width="3.000000"
	d="
M493.000000,380.000000 
	C486.775696,378.034241 480.663605,380.184326 474.497437,380.438019 
	C473.364227,380.484650 471.776459,381.318604 470.992615,379.503204 
	C468.730011,374.262848 464.173859,374.465210 459.500458,374.433746 
	C454.831757,374.402344 450.166656,373.833344 445.500000,373.500031 
"/>
<path fill="none" opacity="1.000000" stroke="#000000" stroke-linecap="round" stroke-linejoin="round" stroke-width="2.000000"
	d="
M671.500000,984.000000 
	C667.709167,985.143921 663.809204,984.377869 660.001892,984.334534 
	C657.428711,984.305176 657.042236,985.397217 657.568359,986.977234 
	C659.743591,993.510071 659.581177,1000.284241 659.974731,1007.001465 
	C660.090759,1008.981567 660.438477,1010.682312 662.500000,1011.500000 
"/>
<path fill="none" opacity="1.000000" stroke="#000000" stroke-linecap="round" stroke-linejoin="round" stroke-width="2.000000"
	d="
M490.500000,413.500000 
	C486.255981,416.094849 482.421600,413.067902 478.524017,412.366547 
	C471.540100,411.109741 464.596039,410.158356 457.500000,410.500000 
"/>
<path fill="none" opacity="1.000000" stroke="#000000" stroke-linecap="round" stroke-linejoin="round" stroke-width="3.000000"
	d="
M365.000000,348.000000 
	C365.338562,354.449188 368.183075,360.286743 369.518188,366.496094 
	C371.277557,374.678650 373.094055,382.850739 375.045135,390.989166 
	C375.616394,393.372070 376.133240,396.022278 379.000000,397.000000 
"/>
<path fill="none" opacity="1.000000" stroke="#000000" stroke-linecap="round" stroke-linejoin="round" stroke-width="2.000000"
	d="
M444.500000,396.500000 
	C438.151764,395.779999 431.781830,395.327209 425.484985,394.075592 
	C421.733582,393.329926 417.833344,393.333344 414.000000,393.000000 
"/>
<path fill="none" opacity="1.000000" stroke="#000000" stroke-linecap="round" stroke-linejoin="round" stroke-width="4.000000"
	d="
M377.000000,653.500000 
	C378.078827,660.460571 383.067963,665.465515 386.013092,671.493591 
	C388.437836,676.456543 389.157776,681.597900 388.000000,687.000000 
"/>
<path fill="none" opacity="1.000000" stroke="#000000" stroke-linecap="round" stroke-linejoin="round" stroke-width="2.000000"
	d="
M506.000000,363.500000 
	C501.745392,363.481537 497.883392,364.285645 493.910950,366.326660 
	C488.534698,369.088898 482.393524,368.220276 476.500000,367.500000 
"/>
<path fill="none" opacity="1.000000" stroke="#000000" stroke-linecap="round" stroke-linejoin="round" stroke-width="8.000000"
	d="
M717.500000,987.500000 
	C711.463867,986.507568 707.359131,990.859009 702.534485,993.075073 
	C696.220093,995.975220 696.326355,996.206543 692.329224,990.767639 
	C691.674988,992.569153 689.686462,993.668335 690.918762,996.042175 
	C691.341919,996.857300 691.499939,998.566650 689.500000,998.500000 
"/>
<path fill="none" opacity="1.000000" stroke="#000000" stroke-linecap="round" stroke-linejoin="round" stroke-width="3.000000"
	d="
M394.500000,721.000000 
	C396.848450,726.662537 394.135468,732.012939 393.597473,737.509521 
	C393.456329,738.951721 392.198639,738.198669 392.000000,739.000000 
	C389.036469,736.687439 384.758972,739.630798 382.214539,736.218933 
	C382.946747,731.182800 383.723358,725.841431 384.499969,720.500000 
"/>
<path fill="none" opacity="1.000000" stroke="#000000" stroke-linecap="round" stroke-linejoin="round" stroke-width="2.000000"
	d="
M357.500000,339.500000 
	C355.970276,348.136902 357.844727,356.441376 360.647278,364.448456 
	C361.941559,368.146271 360.298492,372.112396 362.500000,375.500000 
"/>
<path fill="none" opacity="1.000000" stroke="#000000" stroke-linecap="round" stroke-linejoin="round" stroke-width="3.000000"
	d="
M419.500000,348.000000 
	C414.000000,350.292664 408.507294,347.805176 402.998444,347.934052 
	C392.021210,348.190857 390.212708,346.786041 386.000000,359.500000 
"/>
<path fill="none" opacity="1.000000" stroke="#000000" stroke-linecap="round" stroke-linejoin="round" stroke-width="4.000000"
	d="
M403.999969,698.500000 
	C404.333313,699.000000 404.616821,699.543213 405.007324,699.993652 
	C412.153442,708.235291 410.873596,713.182190 400.504944,717.511841 
	C398.304382,718.430664 396.166656,719.499939 393.999969,720.499939 
"/>
<path fill="none" opacity="1.000000" stroke="#000000" stroke-linecap="round" stroke-linejoin="round" stroke-width="2.000000"
	d="
M279.000000,639.500000 
	C287.801880,642.489563 296.824341,644.563049 306.000000,646.000000 
"/>
<path fill="none" opacity="1.000000" stroke="#000000" stroke-linecap="round" stroke-linejoin="round" stroke-width="2.000000"
	d="
M415.500000,455.500000 
	C406.460449,456.234650 397.529419,454.039032 388.500000,454.500000 
"/>
<path fill="none" opacity="1.000000" stroke="#000000" stroke-linecap="round" stroke-linejoin="round" stroke-width="8.000000"
	d="
M303.000000,436.500000 
	C307.648193,444.412689 304.831146,452.784454 304.438202,460.997040 
	C304.421143,461.353455 303.500000,461.666656 303.000000,461.999969 
"/>
<path fill="none" opacity="1.000000" stroke="#000000" stroke-linecap="round" stroke-linejoin="round" stroke-width="3.000000"
	d="
M381.500000,698.000000 
	C381.840515,700.005127 380.231934,700.592285 379.006775,701.509033 
	C371.495422,707.129211 372.166931,712.628845 380.438385,717.602478 
	C383.919434,719.695679 387.400085,719.314758 390.997406,719.541199 
	C392.014374,719.605103 393.000000,720.166687 394.000000,720.500000 
"/>
<path fill="none" opacity="1.000000" stroke="#000000" stroke-linecap="round" stroke-linejoin="round" stroke-width="3.000000"
	d="
M315.500000,347.000000 
	C311.117584,349.656433 306.213348,349.224304 301.510132,348.866882 
	C298.516571,348.639343 295.410339,348.610718 292.433868,347.133240 
	C289.872559,345.861816 286.511292,345.500763 284.074066,347.586548 
	C282.182648,349.205200 280.120819,348.250549 278.499786,348.251892 
	C274.469299,348.255219 272.807831,350.274384 273.098785,353.491058 
	C274.263641,366.369141 270.682190,378.802185 269.829224,391.488525 
	C269.197784,400.880249 267.000000,410.166656 265.500000,419.500000 
"/>
<path fill="none" opacity="1.000000" stroke="#000000" stroke-linecap="round" stroke-linejoin="round" stroke-width="3.000000"
	d="
M357.500000,344.000000 
	C360.666656,345.333344 364.003143,346.372559 366.955505,348.077057 
	C370.373108,350.050262 373.758972,348.599854 376.984009,348.317505 
	C381.654205,347.908630 386.092712,347.915009 390.500000,349.500000 
"/>
<path fill="none" opacity="1.000000" stroke="#000000" stroke-linecap="round" stroke-linejoin="round" stroke-width="3.000000"
	d="
M329.500000,394.000000 
	C326.000000,394.333313 322.502930,394.883575 318.999054,394.930817 
	C316.233887,394.968079 313.832031,394.986053 312.465759,397.984406 
	C311.133057,400.909180 307.943268,400.553192 305.500000,401.500000 
"/>
<path fill="none" opacity="1.000000" stroke="#000000" stroke-linecap="round" stroke-linejoin="round" stroke-width="3.000000"
	d="
M321.500000,359.500000 
	C317.602936,362.246582 313.097107,361.210907 309.015778,360.830658 
	C302.811707,360.252594 296.965332,360.780365 290.968750,362.383118 
	C286.291382,363.633331 281.333344,363.833344 276.500000,364.500000 
"/>
<path fill="none" opacity="1.000000" stroke="#000000" stroke-linecap="round" stroke-linejoin="round" stroke-width="2.000000"
	d="
M363.000000,376.500000 
	C364.666656,383.166656 366.456726,389.806671 367.906860,396.520111 
	C368.238800,398.056824 368.829926,400.132660 367.000000,401.500000 
"/>
<path fill="none" opacity="1.000000" stroke="#000000" stroke-linecap="round" stroke-linejoin="round" stroke-width="4.000000"
	d="
M97.500000,132.500000 
	C97.500000,134.666672 97.500000,136.833328 97.500000,139.250671 
	C93.237679,140.256485 88.747803,138.554733 84.224533,140.280777 
	C82.966705,136.108673 83.201385,131.007446 79.343391,128.770035 
	C77.632477,127.777809 74.052689,127.009743 71.500000,129.000000 
"/>
<path fill="none" opacity="1.000000" stroke="#000000" stroke-linecap="round" stroke-linejoin="round" stroke-width="2.000000"
	d="
M437.500000,526.500000 
	C434.877045,533.115112 436.179077,540.204041 435.064026,547.010498 
	C434.693298,549.273254 435.791199,549.855347 437.500000,548.000000 
"/>
<path fill="none" opacity="1.000000" stroke="#000000" stroke-linecap="round" stroke-linejoin="round" stroke-width="5.000000"
	d="
M316.500000,346.250000 
	C320.020264,343.979309 323.308685,343.801239 325.976349,347.516968 
	C327.044342,349.004486 328.467926,349.282043 329.994049,348.970795 
	C335.612213,347.824951 341.339355,348.726624 347.042053,347.744019 
	C350.816742,347.093658 352.812958,343.597443 356.500000,343.500000 
"/>
<path fill="none" opacity="1.000000" stroke="#000000" stroke-linecap="round" stroke-linejoin="round" stroke-width="3.000000"
	d="
M460.500000,349.000000 
	C460.000000,349.333344 459.494751,349.964478 459.000793,349.955780 
	C450.161957,349.799713 441.276581,350.837585 432.500000,349.000000 
"/>
<path fill="none" opacity="1.000000" stroke="#000000" stroke-linecap="round" stroke-linejoin="round" stroke-width="2.000000"
	d="
M348.500000,454.500000 
	C356.166656,454.500000 363.833344,454.500000 371.500000,454.500000 
"/>
<path fill="none" opacity="1.000000" stroke="#000000" stroke-linecap="round" stroke-linejoin="round" stroke-width="3.000000"
	d="
M289.500000,397.500000 
	C282.671204,397.419098 276.487122,401.636383 269.500000,400.500000 
"/>
<path fill="none" opacity="1.000000" stroke="#000000" stroke-linecap="round" stroke-linejoin="round" stroke-width="2.000000"
	d="
M474.500000,427.500000 
	C468.003510,427.803864 461.475159,426.864624 455.000000,428.000000 
"/>
<path fill="none" opacity="1.000000" stroke="#000000" stroke-linecap="round" stroke-linejoin="round" stroke-width="2.000000"
	d="
M403.500000,390.000000 
	C398.060913,388.829987 392.396118,390.282959 386.977142,388.572449 
	C386.305389,388.360382 384.742218,387.688843 384.500000,389.500000 
"/>
<path fill="none" opacity="1.000000" stroke="#000000" stroke-linecap="round" stroke-linejoin="round" stroke-width="2.000000"
	d="
M513.500000,428.000000 
	C506.890594,428.557098 500.188690,428.598938 494.000000,431.500000 
"/>
<path fill="none" opacity="1.000000" stroke="#000000" stroke-linecap="round" stroke-linejoin="round" stroke-width="9.000000"
	d="
M62.000000,130.500000 
	C59.958649,127.706749 57.434906,126.709305 54.521866,129.027481 
	C49.485367,133.035477 44.401241,136.798370 37.500000,136.500000 
"/>
<path fill="none" opacity="1.000000" stroke="#000000" stroke-linecap="round" stroke-linejoin="round" stroke-width="2.000000"
	d="
M298.500000,409.500000 
	C292.297333,410.670105 285.770294,410.778503 280.121979,414.668915 
	C281.587219,417.431488 283.782990,416.167847 285.500000,416.500000 
"/>
<path fill="none" opacity="1.000000" stroke="#000000" stroke-linecap="round" stroke-linejoin="round" stroke-width="2.000000"
	d="
M440.500000,386.500000 
	C434.587585,384.590332 428.497986,385.869690 422.500000,385.500000 
"/>
<path fill="none" opacity="1.000000" stroke="#000000" stroke-linecap="round" stroke-linejoin="round" stroke-width="4.000000"
	d="
M398.000000,412.500000 
	C395.266876,409.817627 396.865814,406.956146 397.406952,403.983063 
	C397.896454,401.293640 399.384094,398.216034 396.020264,395.969635 
	C392.953491,393.921600 389.744232,394.098297 386.512970,395.044342 
	C384.191681,395.723969 382.648376,398.130066 380.000000,398.250000 
"/>
<path fill="none" opacity="1.000000" stroke="#000000" stroke-linecap="round" stroke-linejoin="round" stroke-width="2.000000"
	d="
M487.500000,420.500000 
	C481.809998,420.436676 476.231659,422.271362 470.500000,421.500000 
"/>
<path fill="none" opacity="1.000000" stroke="#000000" stroke-linecap="round" stroke-linejoin="round" stroke-width="2.000000"
	d="
M526.500000,680.000000 
	C521.503357,679.460205 517.197937,682.142395 512.525391,683.121338 
	C511.498016,683.336609 510.486938,683.254944 509.500000,683.500000 
"/>
<path fill="none" opacity="1.000000" stroke="#000000" stroke-linecap="round" stroke-linejoin="round" stroke-width="2.000000"
	d="
M448.000000,457.500000 
	C442.500000,457.500000 437.000000,457.500000 431.500000,457.500000 
"/>
<path fill="none" opacity="1.000000" stroke="#000000" stroke-linecap="round" stroke-linejoin="round" stroke-width="2.000000"
	d="
M657.500000,924.500000 
	C652.757080,924.851074 655.041626,928.254578 655.638977,929.951050 
	C657.051147,933.962097 661.306946,935.934509 663.500000,939.500000 
"/>
<path fill="none" opacity="1.000000" stroke="#000000" stroke-linecap="round" stroke-linejoin="round" stroke-width="2.000000"
	d="
M474.500000,440.500000 
	C469.000000,440.666656 463.500000,440.833344 458.000000,441.000000 
"/>
<path fill="none" opacity="1.000000" stroke="#000000" stroke-linecap="round" stroke-linejoin="round" stroke-width="3.000000"
	d="
M451.500000,510.000031 
	C446.166656,509.666687 440.833344,509.333344 435.500000,509.000031 
"/>
<path fill="none" opacity="1.000000" stroke="#000000" stroke-linecap="round" stroke-linejoin="round" stroke-width="4.000000"
	d="
M341.500000,369.500000 
	C345.323792,370.697174 349.147583,371.894348 353.038147,373.112427 
	C352.950928,375.634399 351.359528,376.334900 349.003815,376.543182 
	C345.156342,376.883392 341.333344,377.500000 337.500000,378.000000 
"/>
<path fill="none" opacity="1.000000" stroke="#000000" stroke-linecap="round" stroke-linejoin="round" stroke-width="3.000000"
	d="
M75.000000,114.000000 
	C75.295845,116.183334 73.648964,117.660057 72.995705,119.498474 
	C71.500359,123.706711 70.339912,127.975624 70.500000,132.500000 
"/>
<path fill="none" opacity="1.000000" stroke="#000000" stroke-linecap="round" stroke-linejoin="round" stroke-width="3.000000"
	d="
M506.000000,380.500000 
	C502.500000,380.666656 498.988098,381.075653 495.504700,380.904541 
	C493.572479,380.809601 493.609802,383.108826 492.000000,383.000000 
"/>
<path fill="none" opacity="1.000000" stroke="#000000" stroke-linecap="round" stroke-linejoin="round" stroke-width="3.000000"
	d="
M439.000000,388.500000 
	C440.549805,391.875488 443.970032,390.967896 446.526917,391.278534 
	C447.954651,391.451996 449.843689,391.270111 451.500000,391.000000 
"/>
<path fill="none" opacity="1.000000" stroke="#000000" stroke-linecap="round" stroke-linejoin="round" stroke-width="2.000000"
	d="
M435.500000,516.500000 
	C436.732483,520.887146 433.855774,525.116272 435.000000,529.500000 
"/>
<path fill="none" opacity="1.000000" stroke="#000000" stroke-linecap="round" stroke-linejoin="round" stroke-width="2.000000"
	d="
M440.000000,564.500000 
	C441.392029,568.751892 439.607971,573.248108 441.000000,577.500000 
"/>
<path fill="none" opacity="1.000000" stroke="#000000" stroke-linecap="round" stroke-linejoin="round" stroke-width="3.000000"
	d="
M396.500000,430.000000 
	C392.166656,431.569061 387.833344,431.569061 383.500000,430.000000 
"/>
<path fill="none" opacity="1.000000" stroke="#000000" stroke-linecap="round" stroke-linejoin="round" stroke-width="2.000000"
	d="
M441.500000,578.500000 
	C444.031677,582.546387 443.464996,587.069458 443.500000,591.500000 
"/>
<path fill="none" opacity="1.000000" stroke="#000000" stroke-linecap="round" stroke-linejoin="round" stroke-width="2.000000"
	d="
M699.500000,921.500000 
	C690.500000,921.500000 681.500000,921.500000 672.500000,921.500000 
"/>
<path fill="none" opacity="1.000000" stroke="#000000" stroke-linecap="round" stroke-linejoin="round" stroke-width="3.000000"
	d="
M469.500000,432.500000 
	C473.367676,430.578827 477.493683,431.640320 481.500885,431.533447 
	C492.164612,431.248962 502.898010,435.305878 513.500000,431.000000 
"/>
<path fill="none" opacity="1.000000" stroke="#000000" stroke-linecap="round" stroke-linejoin="round" stroke-width="6.000000"
	d="
M361.500000,392.500000 
	C355.333344,392.333344 349.166656,392.166656 343.000000,392.000000 
"/>
<path fill="none" opacity="1.000000" stroke="#000000" stroke-linecap="round" stroke-linejoin="round" stroke-width="3.000000"
	d="
M457.500000,347.500000 
	C462.188965,348.208405 466.741302,347.688171 471.676331,349.526642 
	C477.596619,351.732178 484.833344,352.174042 491.500000,350.000000 
"/>
<path fill="none" opacity="1.000000" stroke="#000000" stroke-linecap="round" stroke-linejoin="round" stroke-width="2.000000"
	d="
M381.500000,408.000000 
	C377.318939,408.275726 373.466553,409.866180 369.500000,411.000000 
"/>
<path fill="none" opacity="1.000000" stroke="#000000" stroke-linecap="round" stroke-linejoin="round" stroke-width="4.000000"
	d="
M672.000000,985.000000 
	C672.447937,992.814819 675.206665,996.000610 681.500000,996.003967 
	C684.219177,996.005371 685.489807,994.782715 685.000000,992.000000 
"/>
<path fill="none" opacity="1.000000" stroke="#000000" stroke-linecap="round" stroke-linejoin="round" stroke-width="3.000000"
	d="
M441.500000,479.500000 
	C436.530945,482.123993 437.376678,487.250183 436.575073,491.514099 
	C435.088898,499.419556 434.868469,507.460541 435.000000,515.500000 
"/>
<path fill="none" opacity="1.000000" stroke="#000000" stroke-linecap="round" stroke-linejoin="round" stroke-width="2.000000"
	d="
M93.000000,111.500000 
	C95.325722,114.085449 95.826454,117.165863 95.508499,120.500809 
	C95.148560,124.276207 96.205589,127.873482 97.000000,131.500000 
"/>
<path fill="none" opacity="1.000000" stroke="#000000" stroke-linecap="round" stroke-linejoin="round" stroke-width="3.000000"
	d="
M684.000000,996.000000 
	C684.233704,999.447449 683.439758,1002.552734 681.583374,1005.551575 
	C680.627197,1007.096130 679.596130,1008.920166 680.000000,1011.000000 
"/>
<path fill="none" opacity="1.000000" stroke="#000000" stroke-linecap="round" stroke-linejoin="round" stroke-width="2.000000"
	d="
M80.500000,202.500000 
	C77.500000,202.500000 74.398422,202.015839 71.524902,202.618713 
	C67.659447,203.429718 66.688469,201.681076 66.500000,198.500000 
"/>
<path fill="none" opacity="1.000000" stroke="#000000" stroke-linecap="round" stroke-linejoin="round" stroke-width="3.000000"
	d="
M309.500000,351.500000 
	C307.046448,355.278717 303.577698,352.966095 300.500000,353.000000 
"/>
<path fill="none" opacity="1.000000" stroke="#000000" stroke-linecap="round" stroke-linejoin="round" stroke-width="3.000000"
	d="
M280.000000,415.000000 
	C276.833344,415.500000 273.666656,416.000000 270.500000,416.500000 
"/>
<path fill="none" opacity="1.000000" stroke="#000000" stroke-linecap="round" stroke-linejoin="round" stroke-width="2.000000"
	d="
M281.000000,417.000000 
	C278.256012,420.176910 274.770721,418.659088 271.500000,418.500000 
"/>
<path fill="none" opacity="1.000000" stroke="#000000" stroke-linecap="round" stroke-linejoin="round" stroke-width="3.000000"
	d="
M449.500000,362.000000 
	C446.576233,363.538818 443.424561,360.975159 440.500000,362.500000 
"/>
<path fill="none" opacity="1.000000" stroke="#000000" stroke-linecap="round" stroke-linejoin="round" stroke-width="3.000000"
	d="
M329.500000,400.000000 
	C326.339233,399.943207 323.162079,399.812744 320.500000,402.000000 
"/>
<path fill="none" opacity="1.000000" stroke="#000000" stroke-linecap="round" stroke-linejoin="round" stroke-width="3.000000"
	d="
M292.500000,418.500000 
	C292.708679,421.330872 292.023865,424.214294 293.000000,427.000000 
"/>
<path fill="none" opacity="1.000000" stroke="#000000" stroke-linecap="round" stroke-linejoin="round" stroke-width="2.000000"
	d="
M71.500000,111.000000 
	C75.458603,114.102409 79.915047,113.968887 84.500000,113.000000 
"/>
<path fill="none" opacity="1.000000" stroke="#000000" stroke-linecap="round" stroke-linejoin="round" stroke-width="2.000000"
	d="
M64.000000,109.500000 
	C66.333336,112.463921 68.666664,112.463921 71.000000,109.500000 
"/>
<path fill="none" opacity="1.000000" stroke="#000000" stroke-linecap="round" stroke-linejoin="round" stroke-width="3.000000"
	d="
M471.000000,350.500000 
	C471.111023,353.305573 471.477631,356.047272 473.000000,358.500000 
"/>
<path fill="none" opacity="1.000000" stroke="#000000" stroke-linecap="round" stroke-linejoin="round" stroke-width="2.000000"
	d="
M80.500000,139.500000 
	C80.833336,140.166672 81.500755,140.860901 81.448349,141.495743 
	C80.920837,147.885849 82.189980,154.165436 82.500000,160.500000 
"/>
<path fill="none" opacity="1.000000" stroke="#000000" stroke-linecap="round" stroke-linejoin="round" stroke-width="2.000000"
	d="
M67.000000,202.000000 
	C63.552902,203.277618 59.989758,202.118240 56.500000,202.500000 
"/>
<path fill="none" opacity="1.000000" stroke="#000000" stroke-linecap="round" stroke-linejoin="round" stroke-width="3.000000"
	d="
M63.500000,126.000000 
	C67.087234,128.769836 63.106434,130.375351 62.500000,132.500000 
"/>
<path fill="none" opacity="1.000000" stroke="#000000" stroke-linecap="round" stroke-linejoin="round" stroke-width="3.000000"
	d="
M438.000000,474.500000 
	C438.283844,476.824951 437.393036,479.233826 438.500000,481.500000 
"/>
<path fill="none" opacity="1.000000" stroke="#000000" stroke-linecap="round" stroke-linejoin="round" stroke-width="2.000000"
	d="
M438.500000,541.500000 
	C438.500000,545.833313 438.500000,550.166687 438.500000,554.500000 
"/>
<path fill="none" opacity="1.000000" stroke="#000000" stroke-linecap="round" stroke-linejoin="round" stroke-width="3.000000"
	d="
M710.000000,981.500000 
	C709.377563,983.727356 709.113159,985.927185 710.500000,988.000000 
"/>
<path fill="none" opacity="1.000000" stroke="#000000" stroke-linecap="round" stroke-linejoin="round" stroke-width="3.000000"
	d="
M465.500000,340.500000 
	C465.666656,342.583344 465.833344,344.666656 466.000000,346.750000 
"/>
<path fill="none" opacity="1.000000" stroke="#000000" stroke-linecap="round" stroke-linejoin="round" stroke-width="3.000000"
	d="
M382.000000,411.500000 
	C381.000000,413.333344 380.177002,415.296478 378.952911,416.965454 
	C377.577301,418.840942 375.803131,420.250580 373.500000,418.000000 
"/>
<path fill="none" opacity="1.000000" stroke="#000000" stroke-linecap="round" stroke-linejoin="round" stroke-width="2.000000"
	d="
M45.500000,136.000000 
	C46.309441,138.081345 46.307064,140.095032 45.000000,142.000000 
"/>
<path fill="none" opacity="1.000000" stroke="#000000" stroke-linecap="round" stroke-linejoin="round" stroke-width="3.000000"
	d="
M375.500000,411.500000 
	C375.788147,413.683289 376.614594,415.447906 379.000000,416.000000 
"/>
<path fill="none" opacity="1.000000" stroke="#000000" stroke-linecap="round" stroke-linejoin="round" stroke-width="3.000000"
	d="
M292.500000,341.000000 
	C290.833344,340.414429 289.166656,340.161926 287.000000,341.074066 
	C287.000000,342.665314 287.000000,344.332672 287.000000,346.000000 
"/>
<path fill="none" opacity="1.000000" stroke="#000000" stroke-linecap="round" stroke-linejoin="round" stroke-width="2.000000"
	d="
M331.500000,456.000000 
	C333.077454,457.058685 334.843689,456.229889 336.500000,456.500000 
"/>
<path fill="none" opacity="1.000000" stroke="#000000" stroke-linecap="round" stroke-linejoin="round" stroke-width="2.000000"
	d="
M92.500000,113.000000 
	C90.129883,113.348312 87.677238,114.852028 85.500000,112.500000 
"/>
<path fill="none" opacity="1.000000" stroke="#000000" stroke-linecap="round" stroke-linejoin="round" stroke-width="2.000000"
	d="
M690.500000,1013.000000 
	C687.810181,1011.446594 684.649475,1013.896362 682.000000,1012.000000 
"/>
<path fill="none" opacity="1.000000" stroke="#000000" stroke-linecap="round" stroke-linejoin="round" stroke-width="2.000000"
	d="
M684.500000,1010.500000 
	C688.670532,1010.968018 693.102905,1009.253540 697.000000,1012.000000 
"/>
<path fill="none" opacity="1.000000" stroke="#000000" stroke-linecap="round" stroke-linejoin="round" stroke-width="2.000000"
	d="
M689.000000,922.500000 
	C689.166687,924.166687 689.333313,925.833313 689.500000,927.500000 
"/>
<path fill="none" opacity="1.000000" stroke="#000000" stroke-linecap="round" stroke-linejoin="round" stroke-width="2.000000"
	d="
M309.500000,412.000000 
	C307.922546,410.941315 306.156311,411.770111 304.500000,411.500000 
"/>
<path fill="none" opacity="1.000000" stroke="#000000" stroke-linecap="round" stroke-linejoin="round" stroke-width="2.000000"
	d="
M695.000000,1011.500000 
	C694.066040,1013.032471 691.374023,1012.220947 691.000000,1014.500000 
"/>
<path fill="none" opacity="1.000000" stroke="#000000" stroke-linecap="round" stroke-linejoin="round" stroke-width="2.000000"
	d="
M717.500000,1008.500000 
	C718.363770,1011.569824 715.210449,1009.819214 714.500000,1011.000000 
"/>
<path fill="none" opacity="1.000000" stroke="#000000" stroke-linecap="round" stroke-linejoin="round" stroke-width="2.000000"
	d="
M706.000000,1011.500000 
	C708.860413,1010.283508 711.755005,1008.793274 714.000000,1012.500000 
"/>
<path fill="none" opacity="1.000000" stroke="#000000" stroke-linecap="round" stroke-linejoin="round" stroke-width="2.000000"
	d="
M81.000000,154.500000 
	C78.085899,154.853210 75.443954,152.893051 72.500000,153.500000 
"/>
<path fill="none" opacity="1.000000" stroke="#000000" stroke-linecap="round" stroke-linejoin="round" stroke-width="2.000000"
	d="
M437.000000,467.000000 
	C437.166656,468.333344 437.333344,469.666656 437.500000,471.000000 
"/>
<path fill="none" opacity="1.000000" stroke="#000000" stroke-linecap="round" stroke-linejoin="round" stroke-width="2.000000"
	d="
M684.000000,990.500000 
	C683.441467,988.769104 682.118530,988.375916 680.500000,988.500000 
"/>
<path fill="none" opacity="1.000000" stroke="#000000" stroke-linecap="round" stroke-linejoin="round" stroke-width="2.000000"
	d="
M719.000000,989.500000 
	C720.774048,990.632385 720.201050,992.058228 719.500000,993.500000 
"/>
<path fill="none" opacity="1.000000" stroke="#000000" stroke-linecap="round" stroke-linejoin="round" stroke-width="2.000000"
	d="
M51.500000,113.500000 
	C50.250881,114.206131 50.482941,110.932243 49.018822,112.517380 
	C46.779732,114.941528 44.374363,113.407753 42.000000,113.000000 
"/>
<path fill="none" opacity="1.000000" stroke="#000000" stroke-linecap="round" stroke-linejoin="round" stroke-width="2.000000"
	d="
M328.000000,474.000000 
	C329.166656,474.166687 330.333344,474.333344 331.500000,474.500000 
"/>
<path fill="none" opacity="1.000000" stroke="#000000" stroke-linecap="round" stroke-linejoin="round" stroke-width="2.000000"
	d="
M682.500000,1010.500000 
	C680.500000,1011.829407 678.500000,1010.683899 676.500000,1010.500000 
"/>
<path fill="none" opacity="1.000000" stroke="#000000" stroke-linecap="round" stroke-linejoin="round" stroke-width="2.000000"
	d="
M59.500000,30.000000 
	C56.248245,33.723686 55.979237,38.613213 54.557217,43.018471 
	C50.492096,55.611710 46.695080,68.291496 42.732437,81.132263 
	C45.843628,82.740685 48.994968,81.902313 52.000740,81.938530 
	C54.871681,81.973129 54.696720,79.274261 54.929558,77.490807 
	C55.494946,73.160011 57.506310,71.392525 62.009853,71.915085 
	C65.627808,72.334877 69.333336,72.000000 72.923073,72.000000 
	C73.953125,75.347664 74.015869,79.999748 76.267334,81.631050 
	C78.567642,83.297752 83.015862,82.000000 87.197365,82.000000 
	C85.008751,74.407219 83.063560,67.435867 80.985046,60.504486 
	C78.380569,51.819168 75.595970,43.187481 73.035225,34.489632 
	C72.027840,31.067913 70.382515,29.232269 66.487915,29.932838 
	C64.389168,30.310368 62.166668,30.000000 60.000000,30.000000 
"/>
<path fill="none" opacity="1.000000" stroke="#000000" stroke-linecap="round" stroke-linejoin="round" stroke-width="2.000000"
	d="
M669.500000,1034.000000 
	C666.588074,1034.688721 668.232971,1036.756836 668.574646,1037.979126 
	C670.589722,1045.188110 672.758789,1052.357056 675.019104,1059.493896 
	C677.771973,1068.186157 680.666382,1076.833374 683.581238,1085.750000 
	C687.653320,1085.750000 691.826660,1085.750000 696.551941,1085.750000 
	C701.631104,1069.093018 706.827881,1052.050293 712.102295,1034.752930 
	C708.476440,1033.092285 704.649292,1034.524292 701.028931,1033.884766 
	C698.237854,1045.015137 698.236328,1044.907959 687.000977,1045.067871 
	C683.780518,1045.113525 681.912292,1044.627930 680.884460,1041.033081 
	C678.851013,1033.921021 678.574951,1034.000000 670.000000,1034.000000 
"/>
</svg>